<?xml version="1.0" encoding="utf-8"?>
<!-- Generator: Adobe Illustrator 25.0.0, SVG Export Plug-In . SVG Version: 6.00 Build 0)  -->
<svg version="1.1" id="Layer_1" xmlns="http://www.w3.org/2000/svg" xmlns:xlink="http://www.w3.org/1999/xlink" x="0px" y="0px"
	 viewBox="0 0 283.46 283.46" style="enable-background:new 0 0 283.46 283.46;" xml:space="preserve">
<style type="text/css">
	.st0{fill:#8950FC;}
</style>
<path class="st0" d="M244.52,7.64H51.04c-10.89,0-19.72,8.84-19.72,19.72V256.1c0,10.89,8.84,19.72,19.72,19.72h193.48
	c10.89,0,19.72-8.84,19.72-19.72V27.36C264.25,16.48,255.41,7.64,244.52,7.64z M183.98,36.96c7,0,12.66,5.66,12.66,12.66
	c0,7-5.66,12.66-12.66,12.66c-7,0-12.66-5.66-12.66-12.66C171.33,42.62,176.98,36.96,183.98,36.96z M146.32,85.58
	c34.52,0,62.93,25.35,66.23,57.73c-25.53-9.88-43.6,0.52-43.6,0.52l-0.49,0.24c-26.26,10.79-44.98,0-44.98,0l-0.61-0.28
	c-20.98-8.62-37.12-3.49-42.78-1.04C83.63,110.62,111.92,85.58,146.32,85.58z M146.32,222.35c-36.78,0-66.59-28.65-66.59-64.03
	c0-2.29,0.12-4.59,0.37-6.82c5.66-2.45,21.8-7.58,42.78,1.04l0.61,0.28c0,0,18.71,10.79,44.98,0l0.49-0.24c0,0,18.07-10.4,43.6-0.52
	c0.18,2.05,0.31,4.16,0.31,6.27C212.85,193.7,183.04,222.35,146.32,222.35z M220.43,62.28c-7,0-12.69-5.66-12.69-12.66
	c0-7,5.69-12.66,12.69-12.66c6.97,0,12.66,5.66,12.66,12.66C233.09,56.62,227.4,62.28,220.43,62.28z"/>
</svg>
